<?xml version="1.0" standalone="no"?>
<!DOCTYPE svg PUBLIC "-//W3C//DTD SVG 20010904//EN"
 "http://www.w3.org/TR/2001/REC-SVG-20010904/DTD/svg10.dtd">
<svg version="1.0" xmlns="http://www.w3.org/2000/svg"
 width="400.000000pt" height="72.000000pt" viewBox="0 0 400.000000 72.000000"
 preserveAspectRatio="xMidYMid meet">
<metadata>
Created by potrace 1.16, written by Peter Selinger 2001-2019
</metadata>
<g transform="translate(0.000000,72.000000) scale(0.100000,-0.100000)"
fill="#000000" stroke="none">
<path d="M0 360 l0 -360 2000 0 2000 0 0 360 0 360 -2000 0 -2000 0 0 -360z
m796 105 c77 -50 74 -179 -6 -220 -89 -46 -190 13 -190 112 0 103 111 164 196
108z m335 5 c43 -23 64 -122 38 -173 -25 -46 -50 -56 -131 -57 l-78 0 0 120 0
120 76 0 c41 0 84 -5 95 -10z m245 -30 c6 -19 26 -72 43 -117 l30 -83 -33 0
c-28 0 -35 5 -40 25 -6 22 -12 25 -51 25 -39 0 -45 -3 -51 -25 -5 -19 -13 -25
-35 -25 -16 0 -29 3 -29 8 0 4 19 58 42 120 l43 113 34 -3 c29 -3 36 -8 47
-38z m174 -80 l0 -120 -30 0 -30 0 0 120 0 120 30 0 30 0 0 -120z m130 25 l0
-95 60 0 c57 0 60 -1 60 -25 0 -25 -1 -25 -90 -25 l-90 0 0 120 0 120 30 0 30
0 0 -95z m184 78 c4 -10 15 -29 25 -42 l18 -24 23 42 c21 35 28 41 58 41 l34
0 -28 -47 c-15 -27 -36 -61 -46 -78 -10 -16 -18 -49 -18 -72 0 -41 -1 -43 -30
-43 -29 0 -30 1 -30 50 0 40 -7 62 -40 115 -22 36 -40 68 -40 70 0 3 15 5 34
5 24 0 36 -5 40 -17z m497 7 c43 -23 64 -122 38 -173 -25 -46 -50 -56 -131
-57 l-78 0 0 120 0 120 76 0 c41 0 84 -5 95 -10z m289 -15 c0 -24 -2 -25 -65
-25 -58 0 -65 -2 -65 -20 0 -18 7 -20 60 -20 57 0 60 -1 60 -25 0 -24 -3 -25
-60 -25 -57 0 -60 -1 -60 -25 0 -24 2 -25 65 -25 63 0 65 -1 65 -25 0 -25 0
-25 -95 -25 l-95 0 0 120 0 120 95 0 c95 0 95 0 95 -25z m206 -15 c6 -19 26
-72 43 -117 l30 -83 -33 0 c-28 0 -35 5 -40 25 -6 22 -12 25 -51 25 -39 0 -45
-3 -51 -25 -5 -19 -13 -25 -35 -25 -16 0 -29 3 -29 8 0 4 19 58 42 120 l43
113 34 -3 c29 -3 36 -8 47 -38z m174 -55 l0 -95 60 0 c57 0 60 -1 60 -25 0
-25 -1 -25 -90 -25 l-90 0 0 120 0 120 30 0 30 0 0 -95z m339 69 c12 -15 21
-31 21 -35 0 -16 -59 -10 -68 7 -6 10 -19 14 -38 12 -47 -5 -34 -29 26 -49 65
-21 94 -51 85 -88 -10 -44 -40 -61 -106 -61 -61 0 -91 18 -102 61 -4 16 0 19
29 19 22 0 34 -5 34 -14 0 -26 59 -36 79 -12 15 18 -3 33 -59 49 -51 15 -85
54 -75 86 12 40 34 51 95 51 51 0 61 -3 79 -26z"/>
<path d="M677 439 c-27 -16 -49 -67 -42 -98 18 -84 132 -104 170 -30 23 43 18
77 -14 110 -31 31 -79 38 -114 18z m63 -47 c0 -31 5 -41 25 -52 14 -7 25 -17
25 -21 0 -17 -18 -17 -48 1 -28 18 -32 25 -32 65 0 33 4 45 15 45 11 0 15 -11
15 -38z"/>
<path d="M1020 360 l0 -70 33 0 c43 0 67 26 67 72 0 43 -25 68 -68 68 l-32 0
0 -70z"/>
<path d="M1313 375 c-11 -34 -10 -35 14 -35 21 0 23 3 17 23 -14 46 -20 48
-31 12z"/>
<path d="M2250 360 l0 -70 33 0 c43 0 67 26 67 72 0 43 -25 68 -68 68 l-32 0
0 -70z"/>
<path d="M2793 375 c-11 -34 -10 -35 14 -35 21 0 23 3 17 23 -14 46 -20 48
-31 12z"/>
</g>
</svg>
